<?xml version="1.0" encoding="UTF-8" standalone="no"?>
<!DOCTYPE svg PUBLIC "-//W3C//DTD SVG 1.1//EN"
 "http://www.w3.org/Graphics/SVG/1.1/DTD/svg11.dtd">
<!-- Generated by graphviz version 2.40.1 (20161225.0304)
 -->
<!-- Title: structs Pages: 1 -->
<svg width="644pt" height="599pt"
 viewBox="0.00 0.00 644.00 599.00" xmlns="http://www.w3.org/2000/svg" xmlns:xlink="http://www.w3.org/1999/xlink">
<g id="graph0" class="graph" transform="scale(1 1) rotate(0) translate(4 595)">
<title>structs</title>
<polygon fill="#ffffff" stroke="transparent" points="-4,4 -4,-595 640,-595 640,4 -4,4"/>
<!-- notifyLoaded -->
<g id="node1" class="node">
<title>notifyLoaded</title>
<g id="a_node1"><a xlink:href="https://github.com/clasp-developers/clasp/blob/8a8e3820df1bb89edcdbb5d1c0ce636c5a5ec834/src/llvmo/llvmoExpose.cc#L3417-L3422" xlink:title="{&lt;io&gt; Object|NotifyLoaded}">
<polygon fill="none" stroke="#000000" points="184.5,-88.5 184.5,-134.5 279.5,-134.5 279.5,-88.5 184.5,-88.5"/>
<text text-anchor="middle" x="232" y="-119.3" font-family="Times,serif" font-size="14.00" fill="#000000">Object</text>
<polyline fill="none" stroke="#000000" points="184.5,-111.5 279.5,-111.5 "/>
<text text-anchor="middle" x="232" y="-96.3" font-family="Times,serif" font-size="14.00" fill="#000000">NotifyLoaded</text>
</a>
</g>
</g>
<!-- save -->
<g id="node6" class="node">
<title>save</title>
<polygon fill="none" stroke="#000000" points="253,-.5 253,-36.5 307,-36.5 307,-.5 253,-.5"/>
<text text-anchor="middle" x="280" y="-14.8" font-family="Times,serif" font-size="14.00" fill="#000000">save</text>
</g>
<!-- notifyLoaded&#45;&gt;save -->
<g id="edge8" class="edge">
<title>notifyLoaded:e&#45;&gt;save</title>
<path fill="none" stroke="#000000" stroke-dasharray="5,2" d="M280,-111.5C306.3152,-111.5 299.1228,-73.804 290.4222,-46.4109"/>
<polygon fill="#000000" stroke="#000000" points="293.7184,-45.2321 287.2077,-36.8738 287.0851,-47.4679 293.7184,-45.2321"/>
<text text-anchor="middle" x="347" y="-58.8" font-family="Times,serif" font-size="14.00" fill="#000000">save as lisp object</text>
</g>
<!-- objectLayer -->
<g id="node2" class="node">
<title>objectLayer</title>
<polygon fill="none" stroke="#000000" points="86,-172.5 86,-241.5 292,-241.5 292,-172.5 86,-172.5"/>
<text text-anchor="middle" x="129" y="-203.3" font-family="Times,serif" font-size="14.00" fill="#000000">ObjectLayer</text>
<polyline fill="none" stroke="#000000" points="172,-172.5 172,-241.5 "/>
<text text-anchor="middle" x="199" y="-226.3" font-family="Times,serif" font-size="14.00" fill="#000000">Object</text>
<polyline fill="none" stroke="#000000" points="226,-218.5 226,-241.5 "/>
<text text-anchor="middle" x="259" y="-226.3" font-family="Times,serif" font-size="14.00" fill="#000000">Resolver</text>
<polyline fill="none" stroke="#000000" points="172,-218.5 292,-218.5 "/>
<text text-anchor="middle" x="232" y="-203.3" font-family="Times,serif" font-size="14.00" fill="#000000">addObject</text>
<polyline fill="none" stroke="#000000" points="172,-195.5 292,-195.5 "/>
<text text-anchor="middle" x="232" y="-180.3" font-family="Times,serif" font-size="14.00" fill="#000000">Object</text>
</g>
<!-- objectLayer&#45;&gt;notifyLoaded -->
<g id="edge7" class="edge">
<title>objectLayer:oo&#45;&gt;notifyLoaded:io</title>
<path fill="none" stroke="#000000" d="M232,-172C232,-159.3698 232,-153.9181 232,-144.765"/>
<polygon fill="#000000" stroke="#000000" points="235.5001,-144.5 232,-134.5 228.5001,-144.5 235.5001,-144.5"/>
</g>
<!-- compileLayer -->
<g id="node3" class="node">
<title>compileLayer</title>
<polygon fill="none" stroke="#000000" points="72.5,-293.5 72.5,-362.5 295.5,-362.5 295.5,-293.5 72.5,-293.5"/>
<text text-anchor="middle" x="121" y="-324.3" font-family="Times,serif" font-size="14.00" fill="#000000">CompileLayer</text>
<polyline fill="none" stroke="#000000" points="169.5,-293.5 169.5,-362.5 "/>
<text text-anchor="middle" x="199.5" y="-347.3" font-family="Times,serif" font-size="14.00" fill="#000000">Module</text>
<polyline fill="none" stroke="#000000" points="229.5,-339.5 229.5,-362.5 "/>
<text text-anchor="middle" x="262.5" y="-347.3" font-family="Times,serif" font-size="14.00" fill="#000000">Resolver</text>
<polyline fill="none" stroke="#000000" points="169.5,-339.5 295.5,-339.5 "/>
<text text-anchor="middle" x="232.5" y="-324.3" font-family="Times,serif" font-size="14.00" fill="#000000">addModule</text>
<polyline fill="none" stroke="#000000" points="169.5,-316.5 295.5,-316.5 "/>
<text text-anchor="middle" x="198" y="-301.3" font-family="Times,serif" font-size="14.00" fill="#000000">Object</text>
<polyline fill="none" stroke="#000000" points="226.5,-293.5 226.5,-316.5 "/>
<text text-anchor="middle" x="261" y="-301.3" font-family="Times,serif" font-size="14.00" fill="#000000">Resolver</text>
</g>
<!-- compileLayer&#45;&gt;objectLayer -->
<g id="edge5" class="edge">
<title>compileLayer:oo&#45;&gt;objectLayer:io</title>
<path fill="none" stroke="#000000" d="M198,-293C198,-274.2256 198.6858,-267.1185 198.9215,-252.3548"/>
<polygon fill="#000000" stroke="#000000" points="202.424,-252.0263 199,-242 195.4242,-251.9732 202.424,-252.0263"/>
</g>
<!-- compileLayer&#45;&gt;objectLayer -->
<g id="edge6" class="edge">
<title>compileLayer:or&#45;&gt;objectLayer:ir</title>
<path fill="none" stroke="#000000" d="M261,-293C261,-274.2147 259.6284,-267.1238 259.1569,-252.3584"/>
<polygon fill="#000000" stroke="#000000" points="262.6512,-251.9458 259,-242 255.652,-252.0519 262.6512,-251.9458"/>
</g>
<!-- optimizeLayer -->
<g id="node4" class="node">
<title>optimizeLayer</title>
<polygon fill="none" stroke="#000000" points="68.5,-414.5 68.5,-483.5 295.5,-483.5 295.5,-414.5 68.5,-414.5"/>
<text text-anchor="middle" x="119" y="-445.3" font-family="Times,serif" font-size="14.00" fill="#000000">OptimizeLayer</text>
<polyline fill="none" stroke="#000000" points="169.5,-414.5 169.5,-483.5 "/>
<text text-anchor="middle" x="199.5" y="-468.3" font-family="Times,serif" font-size="14.00" fill="#000000">Module</text>
<polyline fill="none" stroke="#000000" points="229.5,-460.5 229.5,-483.5 "/>
<text text-anchor="middle" x="262.5" y="-468.3" font-family="Times,serif" font-size="14.00" fill="#000000">Resolver</text>
<polyline fill="none" stroke="#000000" points="169.5,-460.5 295.5,-460.5 "/>
<text text-anchor="middle" x="232.5" y="-445.3" font-family="Times,serif" font-size="14.00" fill="#000000">addModule</text>
<polyline fill="none" stroke="#000000" points="169.5,-437.5 295.5,-437.5 "/>
<text text-anchor="middle" x="199.5" y="-422.3" font-family="Times,serif" font-size="14.00" fill="#000000">Module</text>
<polyline fill="none" stroke="#000000" points="229.5,-414.5 229.5,-437.5 "/>
<text text-anchor="middle" x="262.5" y="-422.3" font-family="Times,serif" font-size="14.00" fill="#000000">Resolver</text>
</g>
<!-- optimizeLayer&#45;&gt;compileLayer -->
<g id="edge3" class="edge">
<title>optimizeLayer:om&#45;&gt;compileLayer:im</title>
<path fill="none" stroke="#000000" d="M200,-414C200,-395.2292 200,-388.1168 200,-373.3535"/>
<polygon fill="#000000" stroke="#000000" points="203.5001,-373 200,-363 196.5001,-373 203.5001,-373"/>
</g>
<!-- optimizeLayer&#45;&gt;compileLayer -->
<g id="edge4" class="edge">
<title>optimizeLayer:or&#45;&gt;compileLayer:ir</title>
<path fill="none" stroke="#000000" d="M263,-414C263,-395.2292 263,-388.1168 263,-373.3535"/>
<polygon fill="#000000" stroke="#000000" points="266.5001,-373 263,-363 259.5001,-373 266.5001,-373"/>
</g>
<!-- claspJIT_O -->
<g id="node5" class="node">
<title>claspJIT_O</title>
<g id="a_node5"><a xlink:href="https://github.com/clasp-developers/clasp/blob/8a8e3820df1bb89edcdbb5d1c0ce636c5a5ec834/src/llvmo/llvmoExpose.cc#L3512" xlink:title="{&lt;im&gt; cM|CLASP\&#45;JIT\&#45;ADD\&#45;MODULE|{&lt;om&gt; Module| &lt;or&gt; Resolver}}">
<polygon fill="none" stroke="#000000" points="156.5,-521.5 156.5,-590.5 339.5,-590.5 339.5,-521.5 156.5,-521.5"/>
<text text-anchor="middle" x="248" y="-575.3" font-family="Times,serif" font-size="14.00" fill="#000000">cM</text>
<polyline fill="none" stroke="#000000" points="156.5,-567.5 339.5,-567.5 "/>
<text text-anchor="middle" x="248" y="-552.3" font-family="Times,serif" font-size="14.00" fill="#000000">CLASP&#45;JIT&#45;ADD&#45;MODULE</text>
<polyline fill="none" stroke="#000000" points="156.5,-544.5 339.5,-544.5 "/>
<text text-anchor="middle" x="200.5" y="-529.3" font-family="Times,serif" font-size="14.00" fill="#000000">Module</text>
<polyline fill="none" stroke="#000000" points="244.5,-521.5 244.5,-544.5 "/>
<text text-anchor="middle" x="292" y="-529.3" font-family="Times,serif" font-size="14.00" fill="#000000">Resolver</text>
</a>
</g>
</g>
<!-- claspJIT_O&#45;&gt;objectLayer -->
<g id="edge10" class="edge">
<title>claspJIT_O:or&#45;&gt;objectLayer:ir</title>
<g id="a_edge10"><a xlink:href="https://github.com/clasp-developers/clasp/blob/8a8e3820df1bb89edcdbb5d1c0ce636c5a5ec834/src/llvmo/llvmoExpose.cc#L3518-L3529" xlink:title="uses same resolver as module (I think)">
<path fill="none" stroke="#000000" stroke-dasharray="5,2" d="M340,-533C472.8841,-533 430.6646,-245.1914 302.2133,-230.5761"/>
<polygon fill="#000000" stroke="#000000" points="302.1813,-227.0688 292,-230 301.787,-234.0577 302.1813,-227.0688"/>
</a>
</g>
<g id="a_edge10&#45;label"><a xlink:href="https://github.com/clasp-developers/clasp/blob/8a8e3820df1bb89edcdbb5d1c0ce636c5a5ec834/src/llvmo/llvmoExpose.cc#L3518-L3529" xlink:title="uses same resolver as module (I think)">
<text text-anchor="middle" x="528" y="-384.8" font-family="Times,serif" font-size="14.00" fill="#000000">uses same resolver as module (I think)</text>
</a>
</g>
</g>
<!-- claspJIT_O&#45;&gt;optimizeLayer -->
<g id="edge1" class="edge">
<title>claspJIT_O:om&#45;&gt;optimizeLayer:im</title>
<g id="a_edge1"><a xlink:href="https://github.com/clasp-developers/clasp/blob/8a8e3820df1bb89edcdbb5d1c0ce636c5a5ec834/src/llvmo/llvmoExpose.cc#L3538">
<path fill="none" stroke="#000000" d="M200,-521C200,-508.5382 200,-503.1592 200,-494.1281"/>
<polygon fill="#000000" stroke="#000000" points="203.5001,-494 200,-484 196.5001,-494 203.5001,-494"/>
</a>
</g>
</g>
<!-- claspJIT_O&#45;&gt;optimizeLayer -->
<g id="edge2" class="edge">
<title>claspJIT_O:or&#45;&gt;optimizeLayer:ir</title>
<g id="a_edge2"><a xlink:href="https://github.com/clasp-developers/clasp/blob/8a8e3820df1bb89edcdbb5d1c0ce636c5a5ec834/src/llvmo/llvmoExpose.cc#L3540">
<path fill="none" stroke="#000000" d="M292,-521C292,-504.1872 273.2219,-504.0033 265.8867,-493.6861"/>
<polygon fill="#000000" stroke="#000000" points="269.2104,-492.5838 263,-484 262.5019,-494.5831 269.2104,-492.5838"/>
</a>
</g>
</g>
<!-- reload -->
<g id="node7" class="node">
<title>reload</title>
<polygon fill="none" stroke="#000000" points="0,-310 0,-346 54,-346 54,-310 0,-310"/>
<text text-anchor="middle" x="27" y="-324.3" font-family="Times,serif" font-size="14.00" fill="#000000">reload</text>
</g>
<!-- reload&#45;&gt;objectLayer -->
<g id="edge9" class="edge">
<title>reload&#45;&gt;objectLayer:io</title>
<path fill="none" stroke="#000000" stroke-dasharray="5,2" d="M35.2785,-309.7575C43.4975,-293.8782 57.6636,-271.6337 77,-260 97.18,-247.8588 172.7757,-263.5308 193.638,-250.7858"/>
<polygon fill="#000000" stroke="#000000" points="196.778,-252.3592 199,-242 190.8029,-248.7125 196.778,-252.3592"/>
<text text-anchor="middle" x="135.5" y="-263.8" font-family="Times,serif" font-size="14.00" fill="#000000">load from lisp object</text>
</g>
</g>
</svg>
