<?xml version="1.0" encoding="UTF-8" standalone="no"?>
<!DOCTYPE svg PUBLIC "-//W3C//DTD SVG 1.1//EN"
 "http://www.w3.org/Graphics/SVG/1.1/DTD/svg11.dtd">
<!-- Generated by graphviz version 2.40.1 (20161225.0304)
 -->
<!-- Title: structs Pages: 1 -->
<svg width="556pt" height="313pt"
 viewBox="0.00 0.00 556.00 313.00" xmlns="http://www.w3.org/2000/svg" xmlns:xlink="http://www.w3.org/1999/xlink">
<g id="graph0" class="graph" transform="scale(1 1) rotate(0) translate(4 309)">
<title>structs</title>
<polygon fill="#ffffff" stroke="transparent" points="-4,4 -4,-309 552,-309 552,4 -4,4"/>
<!-- addModule -->
<g id="node1" class="node">
<title>addModule</title>
<polygon fill="none" stroke="#000000" points="245,-189.5 245,-304.5 537,-304.5 537,-189.5 245,-189.5"/>
<text text-anchor="middle" x="336.5" y="-243.3" font-family="Times,serif" font-size="14.00" fill="#000000">CLASP&#45;JIT&#45;ADD&#45;MODULE</text>
<polyline fill="none" stroke="#000000" points="428,-189.5 428,-304.5 "/>
<text text-anchor="middle" x="482.5" y="-289.3" font-family="Times,serif" font-size="14.00" fill="#000000">Module</text>
<polyline fill="none" stroke="#000000" points="428,-281.5 537,-281.5 "/>
<text text-anchor="middle" x="482.5" y="-266.3" font-family="Times,serif" font-size="14.00" fill="#000000">optimizeModule</text>
<polyline fill="none" stroke="#000000" points="428,-258.5 537,-258.5 "/>
<text text-anchor="middle" x="482.5" y="-243.3" font-family="Times,serif" font-size="14.00" fill="#000000">Compile</text>
<polyline fill="none" stroke="#000000" points="428,-235.5 537,-235.5 "/>
<text text-anchor="middle" x="482.5" y="-220.3" font-family="Times,serif" font-size="14.00" fill="#000000">Save</text>
<polyline fill="none" stroke="#000000" points="428,-212.5 537,-212.5 "/>
<text text-anchor="middle" x="482.5" y="-197.3" font-family="Times,serif" font-size="14.00" fill="#000000">Object</text>
</g>
<!-- addObject -->
<g id="node2" class="node">
<title>addObject</title>
<polygon fill="none" stroke="#000000" points="0,-106.5 0,-152.5 294,-152.5 294,-106.5 0,-106.5"/>
<text text-anchor="middle" x="87" y="-125.8" font-family="Times,serif" font-size="14.00" fill="#000000">CLASP&#45;JIT&#45;ADD&#45;OBJECT</text>
<polyline fill="none" stroke="#000000" points="174,-106.5 174,-152.5 "/>
<text text-anchor="middle" x="234" y="-137.3" font-family="Times,serif" font-size="14.00" fill="#000000">Object</text>
<polyline fill="none" stroke="#000000" points="174,-129.5 294,-129.5 "/>
<text text-anchor="middle" x="201" y="-114.3" font-family="Times,serif" font-size="14.00" fill="#000000">Object</text>
<polyline fill="none" stroke="#000000" points="228,-106.5 228,-129.5 "/>
<text text-anchor="middle" x="261" y="-114.3" font-family="Times,serif" font-size="14.00" fill="#000000">Resolver</text>
</g>
<!-- addModule&#45;&gt;addObject -->
<g id="edge3" class="edge">
<title>addModule:oo&#45;&gt;addObject:n</title>
<path fill="none" stroke="#000000" d="M483,-189C483,-137.0075 267.7846,-198.4777 237.5199,-162.4409"/>
<polygon fill="#000000" stroke="#000000" points="240.6372,-160.7583 234,-152.5 234.0386,-163.0948 240.6372,-160.7583"/>
</g>
<!-- save -->
<g id="node4" class="node">
<title>save</title>
<polygon fill="none" stroke="#000000" points="374,-106.5 374,-152.5 548,-152.5 548,-106.5 374,-106.5"/>
<text text-anchor="middle" x="396" y="-125.8" font-family="Times,serif" font-size="14.00" fill="#000000">Save</text>
<polyline fill="none" stroke="#000000" points="418,-106.5 418,-152.5 "/>
<text text-anchor="middle" x="483" y="-137.3" font-family="Times,serif" font-size="14.00" fill="#000000">Object File</text>
<polyline fill="none" stroke="#000000" points="418,-129.5 548,-129.5 "/>
<text text-anchor="middle" x="483" y="-114.3" font-family="Times,serif" font-size="14.00" fill="#000000">Add to list/directory</text>
</g>
<!-- addModule&#45;&gt;save -->
<g id="edge2" class="edge">
<title>addModule:soo&#45;&gt;save:io</title>
<path fill="none" stroke="#000000" d="M537,-224C552.5556,-224 544.2962,-202.7383 537,-189 525.4295,-167.2136 494.4065,-177.0704 485.4514,-162.5883"/>
<polygon fill="#000000" stroke="#000000" points="488.7623,-161.3908 483,-152.5 481.9603,-163.0437 488.7623,-161.3908"/>
</g>
<!-- objectLayer -->
<g id="node3" class="node">
<title>objectLayer</title>
<polygon fill="none" stroke="#000000" points="88,-.5 88,-69.5 294,-69.5 294,-.5 88,-.5"/>
<text text-anchor="middle" x="131" y="-31.3" font-family="Times,serif" font-size="14.00" fill="#000000">ObjectLayer</text>
<polyline fill="none" stroke="#000000" points="174,-.5 174,-69.5 "/>
<text text-anchor="middle" x="201" y="-54.3" font-family="Times,serif" font-size="14.00" fill="#000000">Object</text>
<polyline fill="none" stroke="#000000" points="228,-46.5 228,-69.5 "/>
<text text-anchor="middle" x="261" y="-54.3" font-family="Times,serif" font-size="14.00" fill="#000000">Resolver</text>
<polyline fill="none" stroke="#000000" points="174,-46.5 294,-46.5 "/>
<text text-anchor="middle" x="234" y="-31.3" font-family="Times,serif" font-size="14.00" fill="#000000">addObject</text>
<polyline fill="none" stroke="#000000" points="174,-23.5 294,-23.5 "/>
<text text-anchor="middle" x="234" y="-8.3" font-family="Times,serif" font-size="14.00" fill="#000000">Object</text>
</g>
<!-- addObject&#45;&gt;objectLayer -->
<g id="edge4" class="edge">
<title>addObject:oo&#45;&gt;objectLayer:io</title>
<path fill="none" stroke="#000000" d="M201,-106.5C201,-94.3333 201,-89.0104 201,-80.2656"/>
<polygon fill="#000000" stroke="#000000" points="204.5001,-80 201,-70 197.5001,-80 204.5001,-80"/>
</g>
<!-- addObject&#45;&gt;objectLayer -->
<g id="edge5" class="edge">
<title>addObject:or&#45;&gt;objectLayer:ir</title>
<path fill="none" stroke="#000000" d="M261,-106.5C261,-94.3333 261,-89.0104 261,-80.2656"/>
<polygon fill="#000000" stroke="#000000" points="264.5001,-80 261,-70 257.5001,-80 264.5001,-80"/>
</g>
<!-- load -->
<g id="node5" class="node">
<title>load</title>
<polygon fill="none" stroke="#000000" points="53,-212.5 53,-281.5 227,-281.5 227,-212.5 53,-212.5"/>
<text text-anchor="middle" x="86" y="-243.3" font-family="Times,serif" font-size="14.00" fill="#000000">On Load</text>
<polyline fill="none" stroke="#000000" points="119,-212.5 119,-281.5 "/>
<text text-anchor="middle" x="173" y="-266.3" font-family="Times,serif" font-size="14.00" fill="#000000">for list/directory</text>
<polyline fill="none" stroke="#000000" points="119,-258.5 227,-258.5 "/>
<text text-anchor="middle" x="173" y="-243.3" font-family="Times,serif" font-size="14.00" fill="#000000">Load</text>
<polyline fill="none" stroke="#000000" points="119,-235.5 227,-235.5 "/>
<text text-anchor="middle" x="173" y="-220.3" font-family="Times,serif" font-size="14.00" fill="#000000">Object</text>
</g>
<!-- load&#45;&gt;addObject -->
<g id="edge1" class="edge">
<title>load:oo&#45;&gt;addObject:io</title>
<path fill="none" stroke="#000000" d="M173,-212C173,-177.974 222.2386,-187.6309 232.2402,-162.478"/>
<polygon fill="#000000" stroke="#000000" points="235.7098,-162.9559 234,-152.5 228.8162,-161.7401 235.7098,-162.9559"/>
</g>
</g>
</svg>
